<svg width="93" height="93" viewBox="0 0 93 93" fill="none" xmlns="http://www.w3.org/2000/svg">
<g id="clarity:notification-solid" clip-path="url(#clip0_620_476)">
<path id="Vector" d="M71.0192 75.0283L70.4918 74.2337C69.0001 71.9628 67.8214 69.5011 66.9876 66.9151C66.2471 63.4561 66.2048 59.8841 66.8634 56.4086L69.5524 46.3729C70.9999 41.0247 70.4445 35.332 67.9907 30.3644C65.5369 25.3968 61.3535 21.4962 56.2266 19.3955L56.9288 16.7748C57.1215 16.0556 57.0206 15.2892 56.6483 14.6443C56.276 13.9994 55.6627 13.5288 54.9434 13.3361C54.2241 13.1433 53.4577 13.2442 52.8129 13.6166C52.168 13.9889 51.6974 14.6022 51.5047 15.3214L50.7916 17.9827C45.3356 17.3002 39.8172 18.618 35.2583 21.692C30.6994 24.7661 27.4091 29.3882 25.9967 34.7022L23.3076 44.7379C22.1402 48.077 20.3176 51.1494 17.9468 53.7746C15.9577 55.5983 13.7337 57.148 11.334 58.3824L10.48 58.8068L8.94495 64.5357L69.4842 80.7571L71.0192 75.0283Z" fill="#176BC6" fill-opacity="0.4"/>
<path id="Vector_2" d="M33.3 73.3479C33.1331 74.6834 33.4551 76.0341 34.2065 77.1507C34.9579 78.2673 36.088 79.0743 37.3879 79.4226C38.6879 79.7709 40.0701 79.6371 41.2791 79.0458C42.4881 78.4545 43.4423 77.4457 43.9655 76.2057L33.3 73.3479Z" fill="#176BC6" fill-opacity="0.4"/>
<circle id="Ellipse 51" cx="67.3424" cy="28.6252" r="8.86021" transform="rotate(34.2358 67.3424 28.6252)" fill="#FF5851"/>
</g>
<defs>
<clipPath id="clip0_620_476">
<rect width="75.7146" height="75.7146" fill="white" transform="translate(19.5962) rotate(15)"/>
</clipPath>
</defs>
</svg>
