<svg width="76" height="76" viewBox="0 0 76 76" fill="none" xmlns="http://www.w3.org/2000/svg">
<g id="Group">
<path id="Vector" d="M72 72.0006L55.5933 55.5939M55.5933 55.5939C58.3997 52.7875 60.6259 49.4558 62.1447 45.789C63.6636 42.1222 64.4453 38.1922 64.4453 34.2233C64.4453 30.2544 63.6636 26.3243 62.1448 22.6576C60.6259 18.9908 58.3997 15.6591 55.5933 12.8526C52.7869 10.0462 49.4551 7.82 45.7884 6.30117C42.1216 4.78234 38.1916 4.00061 34.2227 4.00061C30.2538 4.00061 26.3237 4.78234 22.6569 6.30117C18.9902 7.82 15.6584 10.0462 12.852 12.8526C7.18416 18.5205 4 26.2077 4 34.2233C4 42.2388 7.18416 49.9261 12.852 55.5939C18.5199 61.2618 26.2071 64.4459 34.2227 64.4459C42.2382 64.4459 49.9254 61.2618 55.5933 55.5939Z" stroke="#FF5851" stroke-width="7" stroke-linecap="round" stroke-linejoin="round"/>
</g>
</svg>
