<svg width="77" height="77" viewBox="0 0 77 77" fill="none" xmlns="http://www.w3.org/2000/svg">
<path id="Vector" d="M23.1 34.6418C23.1 33.6207 23.5056 32.6414 24.2277 31.9194C24.9497 31.1974 25.9289 30.7918 26.95 30.7918H50.05C51.0711 30.7918 52.0503 31.1974 52.7723 31.9194C53.4944 32.6414 53.9 33.6207 53.9 34.6418C53.9 35.6629 53.4944 36.6421 52.7723 37.3641C52.0503 38.0862 51.0711 38.4918 50.05 38.4918H26.95C25.9289 38.4918 24.9497 38.0862 24.2277 37.3641C23.5056 36.6421 23.1 35.6629 23.1 34.6418ZM26.95 46.1918C25.9289 46.1918 24.9497 46.5974 24.2277 47.3194C23.5056 48.0414 23.1 49.0207 23.1 50.0418C23.1 51.0629 23.5056 52.0421 24.2277 52.7641C24.9497 53.4861 25.9289 53.8918 26.95 53.8918H42.35C43.3711 53.8918 44.3503 53.4861 45.0724 52.7641C45.7944 52.0421 46.2 51.0629 46.2 50.0418C46.2 49.0207 45.7944 48.0414 45.0724 47.3194C44.3503 46.5974 43.3711 46.1918 42.35 46.1918H26.95ZM4.33208e-05 38.4918C0.0019743 30.051 2.77775 21.8449 7.90017 15.1361C13.0226 8.42743 20.2078 3.58802 28.3499 1.3627C36.492 -0.86261 45.1398 -0.350496 52.9623 2.82023C60.7849 5.99096 67.3487 11.6446 71.6435 18.911C75.9384 26.1774 77.7262 34.6538 76.7319 43.0358C75.7376 51.4177 72.0163 59.2407 66.1406 65.3006C60.265 71.3606 52.5607 75.3216 44.2134 76.5743C35.8662 77.8269 27.3385 76.3016 19.943 72.2332L4.97424 76.7916C4.30658 76.9949 3.59619 77.013 2.91906 76.8438C2.24192 76.6746 1.62352 76.3245 1.13 75.831C0.636473 75.3375 0.28639 74.7191 0.117196 74.0419C-0.0519978 73.3648 -0.0339385 72.6544 0.169443 71.9868L4.72784 56.9949C1.61669 51.3246 -0.00967746 44.9595 4.33208e-05 38.4918ZM38.5 7.69181C33.0325 7.69135 27.6635 9.1463 22.9443 11.9072C18.2251 14.6681 14.326 18.6355 11.6473 23.4018C8.96856 28.1681 7.6069 33.5616 7.70213 39.0282C7.79736 44.4949 9.34605 49.8376 12.1891 54.5078C12.4714 54.9717 12.6522 55.4901 12.7199 56.0289C12.7876 56.5676 12.7405 57.1147 12.5818 57.634L9.63273 67.3283L19.3116 64.3792C19.8326 64.2205 20.3813 64.1741 20.9215 64.2431C21.4618 64.3121 21.9812 64.495 22.4455 64.7796C26.5048 67.2579 31.0829 68.7625 35.8209 69.1754C40.559 69.5884 45.3283 68.8985 49.7551 67.1597C54.182 65.421 58.146 62.6807 61.3365 59.1536C64.527 55.6265 66.8574 51.4085 68.145 46.83C69.4325 42.2516 69.6423 37.4372 68.7579 32.7641C67.8734 28.0911 65.9188 23.6863 63.0471 19.8951C60.1755 16.1038 56.4649 13.0291 52.2061 10.9119C47.9473 8.79472 43.256 7.69256 38.5 7.69181Z" fill="#5398FF"/>
</svg>
