<svg width="141" height="126" viewBox="0 0 141 126" fill="none" xmlns="http://www.w3.org/2000/svg">
<path id="Ellipse 12" d="M86.3224 1.53454C96.3067 0.427224 104.273 1.32173 110.684 3.93225C117.089 6.53991 121.979 10.8745 125.793 16.7124C133.444 28.423 136.748 46.1497 139.173 68.0118C141.59 89.8043 137.93 102.364 128.847 110.071C124.286 113.941 118.319 116.623 110.964 118.616C103.608 120.608 94.8937 121.903 84.8594 123.016C84.022 123.108 83.1961 123.2 82.3813 123.291C73.4143 124.291 65.7882 125.141 59.0477 125.26C51.7022 125.39 45.4485 124.65 39.7084 122.307C28.237 117.624 18.6629 106.473 6.62527 82.537C0.65708 70.6695 0.161497 59.9913 3.35585 50.5717C6.55554 41.1362 13.4762 32.9098 22.4345 26.0036C40.3583 12.1857 66.3092 3.7541 86.3224 1.53454Z" fill="#FF5851" stroke="#FF5851"/>
</svg>
