<svg width="130" height="136" viewBox="0 0 130 136" fill="none" xmlns="http://www.w3.org/2000/svg">
<path id="Ellipse 15" d="M1.86081 59.3338C0.0222737 49.9309 0.346392 42.2722 2.50987 35.9387C4.67136 29.6109 8.68303 24.5642 14.2934 20.4047C25.5461 12.0618 43.1787 7.32031 65.0356 3.04664C86.8329 -1.21536 99.7617 1.14523 108.185 9.10096C116.655 17.101 120.704 30.8628 124.408 49.8088C124.562 50.5978 124.715 51.3759 124.866 52.1436C126.523 60.5946 127.932 67.7789 128.541 74.1852C129.204 81.1649 128.912 87.1807 126.968 92.8516C123.083 104.191 112.541 114.313 89.2859 127.931C77.7521 134.685 67.0171 136.119 57.2846 133.921C47.5396 131.721 38.7484 125.868 31.1424 117.96C15.9223 102.137 5.54713 78.1868 1.86081 59.3338Z" fill="#5398FF" stroke="#FF5851"/>
</svg>
