<svg width="121" height="111" viewBox="0 0 121 111" fill="none" xmlns="http://www.w3.org/2000/svg">
<path id="Ellipse 25" d="M27.1071 103.799C18.7715 101.097 12.7644 97.5287 8.60939 93.1584C4.45962 88.7937 2.1303 83.6006 1.19388 77.5965C-0.685378 65.5472 3.04618 50.2685 8.9693 32C14.8708 13.7982 22.2841 5.14444 32.2494 2.28277C37.2559 0.845076 42.957 0.852426 49.5205 1.908C56.0845 2.96367 63.4796 5.06216 71.8632 7.78033C72.5626 8.0071 73.2526 8.2304 73.9334 8.4507C81.4286 10.8762 87.7993 12.9378 93.2028 15.2627C99.0902 17.7957 103.792 20.6265 107.51 24.5441C114.939 32.3726 118.552 44.6629 119.534 68.0309C120.02 79.6024 116.584 88.2602 110.672 94.5948C104.748 100.941 96.2995 104.997 86.6983 107.273C67.4871 111.828 43.8211 109.219 27.1071 103.799Z" fill="#FF5851" stroke="#FF5851"/>
</svg>
