<svg width="50" height="52" viewBox="0 0 50 52" fill="none" xmlns="http://www.w3.org/2000/svg">
<g id="Group">
<path id="Vector" fill-rule="evenodd" clip-rule="evenodd" d="M14.8606 6.62706L14.9368 6.29439C15.0824 5.67618 15.3208 4.76688 15.8128 3.87144C16.3146 2.95937 17.0922 2.03482 18.312 1.42631C19.5277 0.820577 21.051 0.594639 22.9348 0.844141C25.0139 1.12137 29.1903 1.80888 32.8802 3.6857C36.5909 5.5736 40.0673 8.82129 40.0673 14.23C40.0673 17.0244 38.9861 20.0226 37.9382 21.977C37.435 22.9168 36.8376 23.815 36.2388 24.2988C36.1016 24.4097 35.9061 24.5483 35.6635 24.6453C34.9982 26.832 33.6736 28.7598 31.8711 30.1652C30.0685 31.5706 27.8758 32.3849 25.5929 32.4968C23.3099 32.6088 21.0481 32.0129 19.1167 30.7906C17.1853 29.5683 15.6785 27.7794 14.8024 25.6683L14.7691 25.6738L14.277 25.0764L14.2756 25.0736L14.2729 25.0708L14.2659 25.0611L14.2424 25.0334C14.1237 24.8858 14.0096 24.7346 13.9 24.5802C13.6007 24.165 13.3186 23.7377 13.0545 23.2994C12.403 22.221 11.617 20.6851 11.1139 18.8929C10.6121 17.1006 10.382 14.9993 10.9087 12.8314C11.4216 10.7217 12.6317 8.64526 14.8232 6.79062L14.8606 6.62706ZM17.1893 24.1449C17.7904 25.8737 18.9449 27.3561 20.4738 28.3624C22.0027 29.3688 23.8208 29.8429 25.6464 29.7114C27.472 29.5799 29.2034 28.8501 30.5723 27.635C31.9412 26.4199 32.8712 24.7874 33.2184 22.9903L33.3751 23.0429C33.3695 22.9645 33.3668 22.8859 33.3667 22.8073C33.3667 20.5133 33.0479 18.9123 32.7513 17.9143C32.6934 17.72 32.6291 17.5277 32.5586 17.3376L32.5018 17.3404H32.4464C31.4099 17.3628 30.3737 17.2839 29.3525 17.1048C26.9725 16.7028 23.7498 15.6992 19.9546 13.3747C19.8714 13.5605 19.7883 13.7698 19.7051 14.0026C19.4334 14.7719 19.2102 15.6854 19.0176 16.6501C18.8471 17.4998 18.7071 18.3551 18.574 19.1562L18.5227 19.4723C18.38 20.3317 18.2372 21.1758 18.0708 21.7871C17.7798 22.8489 17.4831 23.6029 17.1893 24.1435M15.2487 21.5612C14.6226 20.4865 14.131 19.339 13.7849 18.1444C13.3705 16.6668 13.218 15.0672 13.6034 13.4856C13.9776 11.947 14.8828 10.3294 16.7443 8.79634C17.0798 8.56902 17.2322 8.26407 17.2738 8.18229V8.1809C17.3466 8.03104 17.4051 7.87464 17.4485 7.71378C17.4928 7.55576 17.5413 7.33953 17.5871 7.14547L17.6356 6.92785C17.7673 6.36924 17.9378 5.76073 18.2427 5.20489C18.5394 4.66708 18.9455 4.20688 19.5498 3.90609C20.157 3.60253 21.0968 3.39461 22.5688 3.59144C24.5829 3.85896 28.3711 4.50074 31.623 6.15577C34.8527 7.79833 37.295 10.285 37.295 14.2286C37.295 16.0444 36.6851 18.1097 35.9505 19.7384C35.8119 18.6766 35.6123 17.8089 35.4071 17.1214C35.2641 16.63 35.0858 16.1496 34.8735 15.684C34.7934 15.5114 34.7055 15.3426 34.6101 15.1781L34.5865 15.1406L34.5782 15.1268L34.5741 15.1198L34.5713 15.1157L34.0584 14.3201L33.1408 14.5044L33.1214 14.5086L32.9869 14.5266C32.7807 14.5496 32.5735 14.5634 32.366 14.5682C31.5113 14.5847 30.6571 14.5178 29.8155 14.3686C27.5797 13.9915 24.2945 12.9644 20.3039 10.3072L19.3336 9.6599L18.531 10.5054C17.8699 11.2013 17.4208 12.1508 17.0922 13.0753C16.7568 14.0248 16.5031 15.0852 16.2994 16.1026C16.1304 16.9684 15.977 17.8372 15.8392 18.7085L15.7865 19.019C15.6382 19.9214 15.5176 20.6103 15.3956 21.0566C15.3501 21.2258 15.3011 21.394 15.2487 21.5612Z" fill="#3D4461"/>
<path id="Vector_2" fill-rule="evenodd" clip-rule="evenodd" d="M16.6139 33.6965C16.32 33.1115 15.9583 32.3893 15.347 32.5293C7.85637 34.2343 0.0996094 39.1564 0.0996094 44.3904V51.9171H50.0001V44.3904C50.0001 40.2681 45.1875 36.3384 39.4836 34.0222L39.4767 34.0083C39.4703 33.9958 39.4639 33.9833 39.4573 33.9709L39.4115 33.9931C37.8965 33.3832 36.3191 32.8842 34.7527 32.5293C34.0555 32.3699 33.3347 33.3291 33.0201 33.9293H16.7331C16.6943 33.8573 16.6555 33.7769 16.6139 33.6965ZM35.3114 35.5261C35.9171 35.6939 36.5201 35.8824 37.1147 36.0903C37.1313 36.5644 37.0953 37.1243 37.0177 37.6954C36.9386 38.2867 36.8126 38.8707 36.6406 39.442H34.7527C34.4954 39.4421 34.2432 39.5139 34.0243 39.6492C33.8054 39.7846 33.6286 39.9783 33.5135 40.2085L32.1274 42.9807C32.031 43.1731 31.9807 43.3852 31.9805 43.6003V46.3726C31.9805 46.7402 32.1265 47.0928 32.3865 47.3527C32.6464 47.6127 32.999 47.7587 33.3666 47.7587H36.1389V44.9865H34.7527V43.9275L35.6094 42.2142H39.4406L40.2972 43.9275V44.9865H38.9111V47.7587H41.6834C42.051 47.7587 42.4036 47.6127 42.6635 47.3527C42.9235 47.0928 43.0695 46.7402 43.0695 46.3726V43.6003C43.0693 43.3852 43.019 43.1731 42.9226 42.9807L41.5364 40.2085C41.4214 39.9783 41.2445 39.7846 41.0257 39.6492C40.8068 39.5139 40.5546 39.4421 40.2972 39.442H39.5127C39.684 38.7084 39.7989 37.9628 39.8565 37.2117C41.2079 37.8507 42.4638 38.5839 43.5519 39.3768C46.216 41.3202 47.2279 43.1387 47.2279 44.3904V49.1448H2.87186V44.3904C2.87186 43.1387 3.88373 41.3202 6.54786 39.3768C7.88686 38.3996 9.48506 37.5152 11.1983 36.7834C11.2459 37.8879 11.4232 38.9831 11.7264 40.0463L11.7375 40.0851C10.9088 40.6094 10.2921 41.4096 9.99618 42.3444C9.70027 43.2793 9.74426 44.2887 10.1204 45.1943C10.4965 46.0998 11.1805 46.8434 12.0516 47.2936C12.9228 47.7437 13.925 47.8716 14.8812 47.6545C15.8375 47.4375 16.6862 46.8894 17.2776 46.1073C17.869 45.3251 18.165 44.3591 18.1133 43.3799C18.0616 42.4007 17.6654 41.4713 16.9949 40.7558C16.3244 40.0403 15.4226 39.5848 14.4488 39.4697C14.2717 38.8897 14.1419 38.2964 14.0607 37.6954C13.9835 37.158 13.9515 36.6151 13.965 36.0723C13.969 35.9686 13.976 35.8651 13.9858 35.7618C14.1521 35.7105 14.3185 35.6606 14.4848 35.6135L15.0601 36.703H34.6931L35.3114 35.5261ZM13.9609 45.0086C14.7066 45.0086 15.347 44.3987 15.347 43.6017C15.347 42.8061 14.7066 42.1948 13.9609 42.1948C13.2151 42.1948 12.5747 42.8047 12.5747 43.6017C12.5747 44.3973 13.2151 45.0086 13.9609 45.0086Z" fill="#3D4461"/>
</g>
</svg>
