<svg width="151" height="153" viewBox="0 0 151 153" fill="none" xmlns="http://www.w3.org/2000/svg">
<g id="noto:paw-prints" clip-path="url(#clip0_333_471)">
<path id="Vector" d="M108.95 76.6459C111.591 74.4664 111.216 69.5694 108.112 65.7081C105.007 61.8469 100.349 60.4835 97.7073 62.663C95.0657 64.8425 95.441 69.7396 98.5455 73.6008C101.65 77.4621 106.308 78.8254 108.95 76.6459Z" fill="#5398FF" fill-opacity="0.71"/>
<path id="Vector_2" d="M48.6569 62.5024C51.4938 60.3967 51.4517 55.4876 48.5627 51.5379C45.6738 47.5881 41.0322 46.0932 38.1953 48.199C35.3584 50.3048 35.4005 55.2138 38.2894 59.1636C41.1783 63.1134 45.82 64.6082 48.6569 62.5024Z" fill="#5398FF" fill-opacity="0.71"/>
<path id="Vector_3" d="M64.3058 49.1957C62.2263 45.0176 57.9571 42.8717 54.7704 44.4025C51.5836 45.9334 50.686 50.5615 52.7655 54.7396C54.845 58.9177 59.1141 61.0637 62.3009 59.5328C65.4876 58.0019 66.3853 53.3739 64.3058 49.1957Z" fill="#5398FF" fill-opacity="0.71"/>
<path id="Vector_4" d="M39.007 72.6932C41.467 70.0598 40.4514 64.9619 36.7386 61.3066C33.0259 57.6514 28.0219 56.823 25.562 59.4564C23.1021 62.0898 24.1177 67.1878 27.8304 70.843C31.5432 74.4983 36.5471 75.3266 39.007 72.6932Z" fill="#5398FF" fill-opacity="0.71"/>
<path id="Vector_5" d="M107.701 87.0804C114.186 74.0087 131.949 75.0123 134.73 82.7728C137.705 91.0906 128.709 91.3976 125.081 96.4145C122.852 99.4964 122.503 108.918 114.705 108.354C107.902 107.86 103.467 95.6074 107.701 87.0804ZM45.9581 70.4541C52.131 63.4839 66.648 62.885 70.0332 70.7371C73.22 78.1301 62.61 80.8792 59.9742 84.571C56.5379 89.3796 54.225 98.4884 47.4619 95.2602C39.8303 91.6079 40.5426 76.5766 45.9581 70.4541Z" fill="#5398FF" fill-opacity="0.71"/>
<path id="Vector_6" d="M36.2018 86.366C37.7525 83.1265 35.6089 78.654 31.4139 76.3765C27.219 74.099 22.5612 74.879 21.0104 78.1186C19.4597 81.3582 21.6033 85.8306 25.7983 88.1081C29.9933 90.3856 34.6511 89.6056 36.2018 86.366Z" fill="#5398FF" fill-opacity="0.71"/>
<path id="Vector_7" d="M102.354 87.2098C103.965 83.8441 101.788 79.225 97.4919 76.8925C93.1958 74.5601 88.407 75.3977 86.796 78.7634C85.1849 82.129 87.3616 86.7482 91.6578 89.0806C95.954 91.413 100.743 90.5754 102.354 87.2098Z" fill="#5398FF" fill-opacity="0.71"/>
<path id="Vector_8" d="M101.559 102.871C102.759 99.5913 100.11 95.3734 95.6411 93.4506C91.1725 91.5278 86.5767 92.6282 85.3763 95.9084C84.1758 99.1885 86.8252 103.406 91.2938 105.329C95.7625 107.252 100.358 106.152 101.559 102.871Z" fill="#5398FF" fill-opacity="0.71"/>
<path id="Vector_9" d="M122.652 70.4656C125.385 68.4289 125.395 63.7703 122.672 60.0603C119.95 56.3504 115.527 54.9941 112.793 57.0308C110.059 59.0676 110.05 63.7262 112.772 67.4362C115.494 71.1461 119.918 72.5024 122.652 70.4656Z" fill="#5398FF" fill-opacity="0.71"/>
</g>
<defs>
<clipPath id="clip0_333_471">
<rect width="106.318" height="112.761" fill="white" transform="translate(0 57.8125) rotate(-32.9401)"/>
</clipPath>
</defs>
</svg>
