<svg width="73" height="70" viewBox="0 0 73 70" fill="none" xmlns="http://www.w3.org/2000/svg">
<g id="ph:bone">
<path id="Vector" d="M66.0621 16.6505C64.3589 14.6838 61.9212 13.4336 59.2697 13.167C59.1014 11.6981 58.5903 10.2844 57.7745 9.03073C56.9586 7.77709 55.8589 6.71566 54.5568 5.9252C53.2548 5.13473 51.7839 4.6355 50.2531 4.46454C48.7224 4.29358 47.1712 4.45527 45.7146 4.93763C44.2579 5.41999 42.9332 6.21064 41.8387 7.25092C40.7443 8.2912 39.9081 9.55443 39.3922 10.9469C38.8763 12.3394 38.694 13.8253 38.8587 15.2946C39.0235 16.7638 39.5311 18.1787 40.3439 19.4341C40.3451 19.4414 40.3451 19.4488 40.3439 19.456L20.2945 38.6951H20.266C18.9568 37.9157 17.4813 37.4289 15.9491 37.2709C14.4168 37.113 12.8672 37.2878 11.415 37.7825C9.9629 38.2772 8.64554 39.079 7.56067 40.1285C6.4758 41.178 5.65128 42.4483 5.14824 43.8451C4.64521 45.2418 4.47658 46.7293 4.65487 48.1971C4.83316 49.6649 5.35378 51.0754 6.17813 52.3239C7.00247 53.5725 8.10939 54.627 9.41676 55.4093C10.7241 56.1917 12.1984 56.6817 13.7302 56.8431C13.8986 58.312 14.4096 59.7257 15.2255 60.9793C16.0413 62.233 17.1411 63.2944 18.4431 64.0849C19.7452 64.8753 21.2161 65.3746 22.7468 65.5455C24.2775 65.7165 25.8287 65.5548 27.2854 65.0724C28.742 64.5901 30.0667 63.7994 31.1612 62.7592C32.2557 61.7189 33.0919 60.4556 33.6078 59.0632C34.1237 57.6707 34.306 56.1847 34.1412 54.7155C33.9765 53.2462 33.4689 51.8314 32.6561 50.5759C32.6555 50.5687 32.6555 50.5613 32.6561 50.5541L52.7168 31.315H52.7453C54.817 32.5662 57.2868 33.0663 59.7091 32.7249C62.1314 32.3835 64.3468 31.2232 65.9554 29.4533C67.564 27.6834 68.46 25.4205 68.4816 23.0729C68.5033 20.7252 67.6492 18.4475 66.0735 16.6505H66.0621ZM62.4777 26.5681C61.5857 27.5476 60.3588 28.1901 59.0173 28.3806C57.6758 28.571 56.3075 28.2968 55.1577 27.6072C54.2824 27.0746 53.2441 26.8437 52.2137 26.9526C51.1833 27.0614 50.2223 27.5035 49.4888 28.206L29.4138 47.456C28.683 48.1606 28.2241 49.0828 28.1127 50.0708C28.0012 51.0589 28.2439 52.0538 28.8008 52.8919C29.2863 53.6409 29.5758 54.4913 29.6445 55.3707C29.7132 56.2501 29.5591 57.1323 29.1953 57.9423C28.8316 58.7522 28.269 59.4658 27.5555 60.0222C26.842 60.5785 25.9987 60.9612 25.0977 61.1376C24.1966 61.3139 23.2644 61.2787 22.3806 61.0349C21.4968 60.7911 20.6876 60.3459 20.022 59.7374C19.3564 59.129 18.8541 58.3751 18.5579 57.5402C18.2618 56.7054 18.1806 55.8142 18.3213 54.9427C18.3724 54.6305 18.3523 54.3113 18.2624 54.0072C18.1725 53.703 18.0149 53.4212 17.8006 53.1811C17.5862 52.941 17.3201 52.7483 17.0206 52.6162C16.7211 52.4841 16.3953 52.4159 16.0657 52.4162C15.9482 52.4171 15.831 52.4263 15.7149 52.4435C14.807 52.5774 13.8789 52.499 13.0094 52.215C12.1399 51.931 11.3548 51.4498 10.7209 50.8124C10.0869 50.1749 9.62297 49.4001 9.36842 48.5538C9.11387 47.7075 9.07627 46.8147 9.25881 45.9515C9.44135 45.0883 9.83864 44.2801 10.4169 43.5957C10.9951 42.9113 11.7372 42.371 12.58 42.0207C13.4228 41.6703 14.3413 41.5204 15.2575 41.5836C16.1737 41.6469 17.0604 41.9213 17.8422 42.3837C18.7175 42.9163 19.7558 43.1472 20.7862 43.0384C21.8167 42.9295 22.7777 42.4874 23.5111 41.7849L43.5861 22.5349C44.3142 21.8311 44.7714 20.9109 44.8828 19.9253C44.9941 18.9397 44.7531 17.947 44.1992 17.1099C43.7137 16.361 43.4242 15.5106 43.3555 14.6312C43.2868 13.7518 43.4409 12.8695 43.8046 12.0596C44.1684 11.2497 44.731 10.5361 45.4445 9.9797C46.158 9.42333 47.0012 9.04066 47.9023 8.86432C48.8033 8.68799 49.7355 8.72322 50.6193 8.96701C51.5031 9.2108 52.3123 9.65592 52.978 10.2644C53.6436 10.8729 54.1459 11.6267 54.442 12.4616C54.7382 13.2965 54.8194 14.1877 54.6787 15.0591C54.6232 15.3995 54.6523 15.7476 54.7636 16.0751C54.875 16.4027 55.0654 16.7003 55.3195 16.9439C55.5735 17.1875 55.8839 17.3701 56.2255 17.4769C56.567 17.5837 56.9301 17.6116 57.285 17.5584C58.4463 17.3782 59.6373 17.5467 60.6948 18.041C61.7523 18.5352 62.6245 19.331 63.1919 20.3192C63.7593 21.3073 63.9942 22.4396 63.8643 23.5608C63.7344 24.6819 63.2461 25.7371 62.4663 26.5818L62.4777 26.5681Z" fill="#3D4461" fill-opacity="0.24"/>
</g>
</svg>
