<svg width="83" height="83" viewBox="0 0 83 83" fill="none" xmlns="http://www.w3.org/2000/svg">
<g id="streamline:pet-paw" clip-path="url(#clip0_352_510)">
<path id="Vector" d="M20.315 25.8053C21.4824 27.9081 24.9898 28.1936 28.1441 26.4426C31.2983 24.6915 32.9109 21.5637 31.7435 19.4609C30.5762 17.358 27.0687 17.0725 23.9145 18.8236C20.7602 20.5746 19.1476 23.7024 20.315 25.8053ZM43.8022 27.7172C44.9695 29.82 48.477 30.1055 51.6312 28.3545C54.7855 26.6034 56.3981 23.4756 55.2307 21.3728C54.0633 19.2699 50.5559 18.9844 47.4016 20.7355C44.2474 22.4865 42.6348 25.6143 43.8022 27.7172ZM54.3762 46.7647C55.5436 48.8675 59.051 49.1531 62.2052 47.402C65.3595 45.6509 66.9721 42.5231 65.8047 40.4203C64.6373 38.3174 61.1299 38.0319 57.9756 39.783C54.8214 41.534 53.2088 44.6618 54.3762 46.7647ZM43.5778 67.7098C44.7452 69.8127 48.2526 70.0982 51.4069 68.3471C54.5611 66.5961 56.1737 63.4682 55.0063 61.3654C53.839 59.2626 50.3315 58.977 47.1773 60.7281C44.023 62.4792 42.4105 65.607 43.5778 67.7098ZM36.3861 59.2434C31.129 62.1619 25.3411 57.3017 22.4227 52.0445C19.5042 46.7874 18.4402 39.3049 23.6973 36.3864C28.9544 33.468 39.1453 32.7941 43.3749 40.4131C47.6045 48.0321 41.6432 56.325 36.3861 59.2434Z" stroke="#5398FF" stroke-opacity="0.72" stroke-linecap="round" stroke-linejoin="round"/>
</g>
<defs>
<clipPath id="clip0_352_510">
<rect width="61" height="61" fill="white" transform="translate(53.333) rotate(60.9637)"/>
</clipPath>
</defs>
</svg>
