<svg width="34" height="34" viewBox="0 0 34 34" fill="none" xmlns="http://www.w3.org/2000/svg">
<g id="uiw:message" clip-path="url(#clip0_363_564)">
<path id="Vector" d="M17 0C26.0814 0 34 7.497 34 16.15C34 24.6568 26.2599 31.3514 17 31.3514C15.0195 31.3524 13.0513 31.0392 11.169 30.4232C10.3802 31.1882 10.1099 31.4483 8.4354 33.0633C7.2284 33.9745 6.0928 34.2839 5.0779 33.7093C4.0545 33.1313 3.7468 32.0059 3.9559 30.5235L4.6359 26.5812C1.683 23.8034 0 20.1314 0 16.15C0 7.497 7.9169 0 17 0ZM17 2.38C9.2038 2.38 2.38 8.84 2.38 16.15C2.38 19.6265 3.9304 22.8276 6.664 25.211L6.698 25.2399L7.2029 25.6785L7.089 26.3415L6.8544 27.7083L6.7915 28.0721L6.307 30.8907C6.27843 31.0805 6.26139 31.2718 6.256 31.4636V31.6251C6.256 31.6336 6.2543 31.637 6.2526 31.6387C6.2645 31.6217 6.4957 31.5486 6.8918 31.2596L10.5808 27.6794L11.2846 27.9446C13.1128 28.6267 15.0487 28.9751 17 28.9731C25.0172 28.9731 31.62 23.2611 31.62 16.15C31.62 8.8417 24.7962 2.38 17 2.38ZM8.8859 13.2821C9.22838 13.2696 9.56987 13.3262 9.88996 13.4487C10.2101 13.5711 10.5022 13.7568 10.7489 13.9947C10.9956 14.2325 11.1919 14.5177 11.3259 14.8331C11.4599 15.1485 11.529 15.4877 11.529 15.8304C11.529 16.1731 11.4599 16.5123 11.3259 16.8277C11.1919 17.1431 10.9956 17.4283 10.7489 17.6661C10.5022 17.904 10.2101 18.0897 9.88996 18.2121C9.56987 18.3346 9.22838 18.3912 8.8859 18.3787C8.22616 18.3546 7.60147 18.0756 7.14326 17.6003C6.68504 17.125 6.429 16.4906 6.429 15.8304C6.429 15.1702 6.68504 14.5358 7.14326 14.0605C7.60147 13.5852 8.22616 13.3062 8.8859 13.2821ZM17.3825 13.2821C17.725 13.2696 18.0665 13.3262 18.3866 13.4487C18.7067 13.5711 18.9988 13.7568 19.2455 13.9947C19.4922 14.2325 19.6884 14.5177 19.8225 14.8331C19.9565 15.1485 20.0256 15.4877 20.0256 15.8304C20.0256 16.1731 19.9565 16.5123 19.8225 16.8277C19.6884 17.1431 19.4922 17.4283 19.2455 17.6661C18.9988 17.904 18.7067 18.0897 18.3866 18.2121C18.0665 18.3346 17.725 18.3912 17.3825 18.3787C16.7228 18.3546 16.0981 18.0756 15.6399 17.6003C15.1816 17.125 14.9256 16.4906 14.9256 15.8304C14.9256 15.1702 15.1816 14.5358 15.6399 14.0605C16.0981 13.5852 16.7228 13.3062 17.3825 13.2821ZM25.8774 13.2821C26.2199 13.2696 26.5614 13.3262 26.8815 13.4487C27.2016 13.5711 27.4937 13.7568 27.7404 13.9947C27.9871 14.2325 28.1833 14.5177 28.3174 14.8331C28.4514 15.1485 28.5205 15.4877 28.5205 15.8304C28.5205 16.1731 28.4514 16.5123 28.3174 16.8277C28.1833 17.1431 27.9871 17.4283 27.7404 17.6661C27.4937 17.904 27.2016 18.0897 26.8815 18.2121C26.5614 18.3346 26.2199 18.3912 25.8774 18.3787C25.2177 18.3546 24.593 18.0756 24.1348 17.6003C23.6765 17.125 23.4205 16.4906 23.4205 15.8304C23.4205 15.1702 23.6765 14.5358 24.1348 14.0605C24.593 13.5852 25.2177 13.3062 25.8774 13.2821Z" fill="#3D4461"/>
</g>
<defs>
<clipPath id="clip0_363_564">
<rect width="34" height="34" fill="white"/>
</clipPath>
</defs>
</svg>
