<svg width="107" height="107" viewBox="0 0 107 107" fill="none" xmlns="http://www.w3.org/2000/svg">
<g id="carbon:reminder" clip-path="url(#clip0_674_475)">
<path id="Vector" d="M83.7509 83.0996L79.4089 79.0079L81.2389 72.9215C82.3211 69.3 82.0881 65.4125 80.5811 61.9462C79.0741 58.4799 76.3902 55.658 73.0038 53.9792L74.6095 48.6389L69.4992 47.1024L67.8935 52.4426C64.1427 51.9754 60.3476 52.8492 57.1788 54.9096C54.0101 56.97 51.6717 60.0843 50.5772 63.7021L48.7471 69.7885L42.8685 70.807L39.3206 82.6067L54.6515 87.2164L53.1149 92.3267L63.3355 95.3998L64.8721 90.2895L80.2029 94.8992L83.7509 83.0996ZM76.6292 88.2524L45.9675 79.033L47.0292 75.5018L52.9078 74.4832L55.6875 65.2387C56.5025 62.528 58.361 60.2521 60.854 58.9117C63.3471 57.5713 66.2705 57.2762 68.9812 58.0912C71.6919 58.9063 73.9677 60.7647 75.3081 63.2578C76.6485 65.7509 76.9437 68.6743 76.1286 71.3849L73.349 80.6295L77.691 84.7212L76.6292 88.2524Z" fill="#2B80FF" fill-opacity="0.8"/>
<path id="Vector_2" d="M91.9949 37.1495C92.4024 35.7941 92.2548 34.3324 91.5846 33.0859C90.9144 31.8394 89.7765 30.9101 88.4211 30.5026L78.2006 27.4295L79.7371 22.3192L74.6268 20.7826L73.0903 25.8929L52.6491 19.7466L54.1857 14.6363L49.0754 13.0998L47.5388 18.2101L37.3182 15.1369C35.9629 14.7294 34.5012 14.877 33.2547 15.5472C32.0081 16.2174 31.0789 17.3553 30.6714 18.7106L15.3057 69.8135C14.8982 71.1689 15.0457 72.6306 15.7159 73.8771C16.3861 75.1236 17.5241 76.0529 18.8794 76.4604L29.1 79.5335L30.6365 74.4233L20.416 71.3501L35.7817 20.2472L46.0022 23.3203L44.4657 28.4306L49.576 29.9672L51.1125 24.8569L71.5537 31.0032L70.0171 36.1135L75.1274 37.65L76.664 32.5398L86.8846 35.6129L82.2749 50.9438L87.3852 52.4803L91.9949 37.1495Z" fill="#2B80FF" fill-opacity="0.8"/>
</g>
<defs>
<clipPath id="clip0_674_475">
<rect width="85.3808" height="85.3808" fill="white" transform="translate(25.0605 0.306641) rotate(16.7351)"/>
</clipPath>
</defs>
</svg>
