<svg width="145" height="145" viewBox="0 0 145 145" fill="none" xmlns="http://www.w3.org/2000/svg">
<g id="noto:paw-prints" clip-path="url(#clip0_568_354)">
<path id="Vector" d="M105.193 73.7386C107.963 71.7475 108.005 67.0653 105.285 63.2807C102.565 59.4961 98.1143 58.0422 95.3436 60.0333C92.573 62.0244 92.5317 66.7066 95.2515 70.4912C97.9712 74.2758 102.422 75.7297 105.193 73.7386Z" fill="#FF5851" fill-opacity="0.28"/>
<path id="Vector_2" d="M47.29 58.2608C50.246 56.3465 50.6147 51.6639 48.1136 47.802C45.6125 43.9401 41.1887 42.3613 38.2328 44.2757C35.2769 46.1901 34.9082 50.8726 37.4092 54.7345C39.9103 58.5964 44.3341 60.1752 47.29 58.2608Z" fill="#FF5851" fill-opacity="0.28"/>
<path id="Vector_3" d="M63.7365 46.0902C62.0477 42.0373 58.0434 39.8499 54.7926 41.2045C51.5419 42.5591 50.2757 46.9427 51.9646 50.9955C53.6534 55.0484 57.6577 57.2358 60.9084 55.8812C64.1592 54.5266 65.4254 50.143 63.7365 46.0902Z" fill="#FF5851" fill-opacity="0.28"/>
<path id="Vector_4" d="M36.9819 67.6608C39.6125 65.2309 39.0431 60.336 35.7101 56.7278C32.377 53.1195 27.5426 52.1644 24.912 54.5943C22.2814 57.0242 22.8509 61.9191 26.1839 65.5274C29.5169 69.1356 34.3513 70.0908 36.9819 67.6608Z" fill="#FF5851" fill-opacity="0.28"/>
<path id="Vector_5" d="M103.097 83.6476C110.544 71.3967 127.867 72.9404 129.945 80.4326C132.165 88.4626 123.324 88.4583 119.349 93.1225C116.907 95.9878 115.779 104.96 108.184 104.165C101.559 103.469 98.2363 91.639 103.097 83.6476ZM43.9809 65.7537C50.6122 59.3109 64.8882 59.2192 67.5498 66.8188C70.0551 73.9739 59.4282 76.245 56.5368 79.6784C52.7678 84.1504 49.7405 92.76 43.3826 89.4582C36.209 85.7234 38.1625 71.4133 43.9809 65.7537Z" fill="#FF5851" fill-opacity="0.28"/>
<path id="Vector_6" d="M33.0911 80.6038C34.8813 77.5658 33.1542 73.2301 29.2335 70.9198C25.3129 68.6094 20.6833 69.1994 18.8931 72.2374C17.1029 75.2754 18.8299 79.6111 22.7506 81.9214C26.6713 84.2318 31.3009 83.6418 33.0911 80.6038Z" fill="#FF5851" fill-opacity="0.28"/>
<path id="Vector_7" d="M97.8468 83.5935C99.7066 80.4373 97.9594 75.9606 93.9441 73.5946C89.9289 71.2285 85.1662 71.8691 83.3063 75.0253C81.4464 78.1815 83.1937 82.6582 87.2089 85.0243C91.2242 87.3903 95.9869 86.7498 97.8468 83.5935Z" fill="#FF5851" fill-opacity="0.28"/>
<path id="Vector_8" d="M95.759 98.5043C97.2093 95.416 94.9654 91.3064 90.7469 89.3253C86.5285 87.3442 81.933 88.2417 80.4826 91.33C79.0322 94.4183 81.2762 98.5279 85.4946 100.509C89.7131 102.49 94.3086 101.593 95.759 98.5043Z" fill="#FF5851" fill-opacity="0.28"/>
<path id="Vector_9" d="M119.136 68.2991C121.985 66.4471 122.383 62.005 120.026 58.3774C117.668 54.7497 113.446 53.3103 110.597 55.1622C107.748 57.0142 107.35 61.4563 109.708 65.0839C112.066 68.7116 116.287 70.1511 119.136 68.2991Z" fill="#FF5851" fill-opacity="0.28"/>
</g>
<defs>
<clipPath id="clip0_568_354">
<rect width="106" height="106" fill="white" transform="translate(0 52.1816) rotate(-29.4905)"/>
</clipPath>
</defs>
</svg>
