<svg width="57" height="56" viewBox="0 0 57 56" fill="none" xmlns="http://www.w3.org/2000/svg">
<path id="Vector" d="M30.927 1.73609L26.999 4.27498L25.7296 2.31097C25.3929 1.79009 24.8631 1.42428 24.2567 1.29402C23.6503 1.16377 23.017 1.27973 22.4961 1.61641C21.9752 1.95309 21.6094 2.4829 21.4791 3.08929C21.3489 3.69568 21.4649 4.32898 21.8015 4.84987L23.071 6.81387L11.2869 14.4306L10.0175 12.4665C9.68082 11.9457 9.15101 11.5799 8.54462 11.4496C7.93823 11.3193 7.30493 11.4353 6.78404 11.772C6.26315 12.1087 5.89735 12.6385 5.76709 13.2449C5.63684 13.8513 5.7528 14.4846 6.08948 15.0054L7.35893 16.9695L3.43091 19.5083C1.86825 20.5184 0.770831 22.1078 0.380065 23.927C-0.0107008 25.7462 0.337201 27.646 1.34724 29.2087L16.5806 52.7768C17.5906 54.3395 19.1801 55.4369 20.9992 55.8276C22.8184 56.2184 24.7183 55.8705 26.281 54.8605L53.7771 37.0882C55.3397 36.0782 56.4371 34.4887 56.8279 32.6696C57.2187 30.8504 56.8708 28.9505 55.8607 27.3878L40.6274 3.81976C39.6173 2.2571 38.0279 1.15968 36.2087 0.768914C34.3896 0.378148 32.4897 0.726049 30.927 1.73609ZM51.9327 29.9267C52.2694 30.4476 52.3854 31.0809 52.2551 31.6873C52.1249 32.2937 51.7591 32.8235 51.2382 33.1602L23.7421 50.9325C23.2212 51.2691 22.5879 51.3851 21.9815 51.2548C21.3751 51.1246 20.8453 50.7588 20.5086 50.2379L11.6225 36.4898L43.0466 16.1787L51.9327 29.9267ZM40.5077 12.2507L9.08359 32.5618L5.27525 26.6698C4.93857 26.1489 4.8226 25.5156 4.95286 24.9092C5.08311 24.3028 5.44892 23.773 5.96981 23.4364L9.89782 20.8975L11.1673 22.8615C11.5039 23.3824 12.0338 23.7482 12.6401 23.8784C13.2465 24.0087 13.8798 23.8927 14.4007 23.556C14.9216 23.2194 15.2874 22.6895 15.4177 22.0832C15.5479 21.4768 15.432 20.8435 15.0953 20.3226L13.8258 18.3586L25.6099 10.7419L26.8793 12.7059C27.216 13.2268 27.7458 13.5926 28.3522 13.7228C28.9586 13.8531 29.5919 13.7371 30.1128 13.4005C30.6337 13.0638 30.9995 12.534 31.1297 11.9276C31.26 11.3212 31.144 10.6879 30.8073 10.167L29.5379 8.20299L33.4659 5.6641C33.9868 5.32742 34.6201 5.21145 35.2265 5.34171C35.8329 5.47196 36.3627 5.83777 36.6994 6.35866L40.5077 12.2507Z" fill="#5398FF" fill-opacity="0.4"/>
</svg>
