<svg width="73" height="11" viewBox="0 0 73 11" fill="none" xmlns="http://www.w3.org/2000/svg">
<g id="Group 37068">
<path id="Vector" d="M4.4112 3.12999L0.522058 3.5868L0.453175 3.59816C0.3489 3.62059 0.253839 3.66503 0.1777 3.72696C0.101561 3.78888 0.0470731 3.86607 0.0197995 3.95063C-0.00747406 4.0352 -0.00655575 4.12411 0.0224606 4.2083C0.051477 4.29248 0.107552 4.36892 0.184959 4.4298L3.00245 6.65162L2.33801 9.79003L2.33008 9.84435C2.3237 9.93172 2.34609 10.0189 2.39497 10.097C2.44385 10.175 2.51746 10.2411 2.60826 10.2886C2.69906 10.336 2.80378 10.363 2.91172 10.3669C3.01965 10.3708 3.12691 10.3513 3.22251 10.3105L6.70079 8.829L10.1712 10.3105L10.2321 10.3333C10.3327 10.3654 10.4421 10.3752 10.5489 10.3618C10.6558 10.3484 10.7563 10.3121 10.8402 10.2568C10.9241 10.2016 10.9883 10.1292 11.0263 10.0471C11.0643 9.96511 11.0746 9.87637 11.0563 9.79003L10.3912 6.65162L13.2099 4.42931L13.2575 4.38733C13.3254 4.31956 13.3699 4.23841 13.3865 4.15216C13.4031 4.0659 13.3912 3.97762 13.352 3.89631C13.3128 3.815 13.2477 3.74357 13.1633 3.68928C13.0789 3.635 12.9782 3.59981 12.8716 3.5873L8.98246 3.12999L7.24393 0.275552C7.19363 0.19285 7.11575 0.123207 7.01911 0.0745088C6.92248 0.0258102 6.81094 0 6.69714 0C6.58333 0 6.4718 0.0258102 6.37516 0.0745088C6.27853 0.123207 6.20065 0.19285 6.15034 0.275552L4.4112 3.12999Z" fill="#F5B972"/>
<path id="Vector_2" d="M19.4112 3.12999L15.5221 3.5868L15.4532 3.59816C15.3489 3.62059 15.2538 3.66503 15.1777 3.72696C15.1016 3.78888 15.0471 3.86607 15.0198 3.95063C14.9925 4.0352 14.9934 4.12411 15.0225 4.2083C15.0515 4.29248 15.1076 4.36892 15.185 4.4298L18.0025 6.65162L17.338 9.79003L17.3301 9.84435C17.3237 9.93172 17.3461 10.0189 17.395 10.097C17.4439 10.175 17.5175 10.2411 17.6083 10.2886C17.6991 10.336 17.8038 10.363 17.9117 10.3669C18.0196 10.3708 18.1269 10.3513 18.2225 10.3105L21.7008 8.829L25.1712 10.3105L25.2321 10.3333C25.3327 10.3654 25.4421 10.3752 25.5489 10.3618C25.6558 10.3484 25.7563 10.3121 25.8402 10.2568C25.9241 10.2016 25.9883 10.1292 26.0263 10.0471C26.0643 9.96511 26.0746 9.87637 26.0563 9.79003L25.3912 6.65162L28.2099 4.42931L28.2575 4.38733C28.3254 4.31956 28.3699 4.23841 28.3865 4.15216C28.4031 4.0659 28.3912 3.97762 28.352 3.89631C28.3128 3.815 28.2477 3.74357 28.1633 3.68928C28.0789 3.635 27.9782 3.59981 27.8716 3.5873L23.9825 3.12999L22.2439 0.275552C22.1936 0.19285 22.1157 0.123207 22.0191 0.0745088C21.9225 0.0258102 21.8109 0 21.6971 0C21.5833 0 21.4718 0.0258102 21.3752 0.0745088C21.2785 0.123207 21.2006 0.19285 21.1503 0.275552L19.4112 3.12999Z" fill="#F5B972"/>
<path id="Vector_3" d="M34.0421 3.12999L30.1529 3.5868L30.084 3.59816C29.9798 3.62059 29.8847 3.66503 29.8086 3.72696C29.7324 3.78888 29.6779 3.86607 29.6507 3.95063C29.6234 4.0352 29.6243 4.12411 29.6533 4.2083C29.6823 4.29248 29.7384 4.36892 29.8158 4.4298L32.6333 6.65162L31.9689 9.79003L31.9609 9.84435C31.9546 9.93172 31.977 10.0189 32.0258 10.097C32.0747 10.175 32.1483 10.2411 32.2391 10.2886C32.3299 10.336 32.4346 10.363 32.5426 10.3669C32.6505 10.3708 32.7578 10.3513 32.8534 10.3105L36.3317 8.829L39.802 10.3105L39.863 10.3333C39.9636 10.3654 40.0729 10.3752 40.1798 10.3618C40.2867 10.3484 40.3872 10.3121 40.4711 10.2568C40.555 10.2016 40.6192 10.1292 40.6572 10.0471C40.6951 9.96511 40.7055 9.87637 40.6871 9.79003L40.0221 6.65162L42.8408 4.42931L42.8883 4.38733C42.9563 4.31956 43.0008 4.23841 43.0174 4.15216C43.034 4.0659 43.0221 3.97762 42.9829 3.89631C42.9437 3.815 42.8785 3.74357 42.7941 3.68928C42.7098 3.635 42.6091 3.59981 42.5025 3.5873L38.6133 3.12999L36.8748 0.275552C36.8245 0.19285 36.7466 0.123207 36.65 0.0745088C36.5533 0.0258102 36.4418 0 36.328 0C36.2142 0 36.1027 0.0258102 36.006 0.0745088C35.9094 0.123207 35.8315 0.19285 35.7812 0.275552L34.0421 3.12999Z" fill="#F5B972"/>
<path id="Vector_4" d="M48.6729 3.12999L44.7838 3.5868L44.7149 3.59816C44.6106 3.62059 44.5156 3.66503 44.4394 3.72696C44.3633 3.78888 44.3088 3.86607 44.2815 3.95063C44.2542 4.0352 44.2552 4.12411 44.2842 4.2083C44.3132 4.29248 44.3693 4.36892 44.4467 4.4298L47.2642 6.65162L46.5997 9.79003L46.5918 9.84435C46.5854 9.93172 46.6078 10.0189 46.6567 10.097C46.7056 10.175 46.7792 10.2411 46.87 10.2886C46.9608 10.336 47.0655 10.363 47.1734 10.3669C47.2814 10.3708 47.3886 10.3513 47.4842 10.3105L50.9625 8.829L54.4329 10.3105L54.4938 10.3333C54.5944 10.3654 54.7038 10.3752 54.8107 10.3618C54.9175 10.3484 55.0181 10.3121 55.1019 10.2568C55.1858 10.2016 55.2501 10.1292 55.288 10.0471C55.326 9.96511 55.3363 9.87637 55.318 9.79003L54.6529 6.65162L57.4716 4.42931L57.5192 4.38733C57.5871 4.31956 57.6316 4.23841 57.6483 4.15216C57.6649 4.0659 57.6529 3.97762 57.6137 3.89631C57.5745 3.815 57.5094 3.74357 57.425 3.68928C57.3406 3.635 57.24 3.59981 57.1333 3.5873L53.2442 3.12999L51.5057 0.275552C51.4553 0.19285 51.3775 0.123207 51.2808 0.0745088C51.1842 0.0258102 51.0727 0 50.9589 0C50.845 0 50.7335 0.0258102 50.6369 0.0745088C50.5402 0.123207 50.4624 0.19285 50.4121 0.275552L48.6729 3.12999Z" fill="#F5B972"/>
<path id="Vector_5" d="M63.3018 3.12999L59.4127 3.5868L59.3438 3.59816C59.2395 3.62059 59.1445 3.66503 59.0683 3.72696C58.9922 3.78888 58.9377 3.86607 58.9104 3.95063C58.8832 4.0352 58.8841 4.12411 58.9131 4.2083C58.9421 4.29248 58.9982 4.36892 59.0756 4.4298L61.8931 6.65162L61.2286 9.79003L61.2207 9.84435C61.2143 9.93172 61.2367 10.0189 61.2856 10.097C61.3345 10.175 61.4081 10.2411 61.4989 10.2886C61.5897 10.336 61.6944 10.363 61.8023 10.3669C61.9103 10.3708 62.0175 10.3513 62.1131 10.3105L65.5914 8.829L69.0618 10.3105L69.1227 10.3333C69.2234 10.3654 69.3327 10.3752 69.4396 10.3618C69.5464 10.3484 69.647 10.3121 69.7309 10.2568C69.8147 10.2016 69.879 10.1292 69.9169 10.0471C69.9549 9.96511 69.9652 9.87637 69.9469 9.79003L69.2818 6.65162L72.1006 4.42931L72.1481 4.38733C72.216 4.31956 72.2606 4.23841 72.2772 4.15216C72.2938 4.0659 72.2819 3.97762 72.2426 3.89631C72.2034 3.815 72.1383 3.74357 72.0539 3.68928C71.9695 3.635 71.8689 3.59981 71.7622 3.5873L67.8731 3.12999L66.1346 0.275552C66.0843 0.19285 66.0064 0.123207 65.9097 0.0745088C65.8131 0.0258102 65.7016 0 65.5878 0C65.474 0 65.3624 0.0258102 65.2658 0.0745088C65.1692 0.123207 65.0913 0.19285 65.041 0.275552L63.3018 3.12999Z" fill="#F5B972"/>
</g>
</svg>
