<svg width="74" height="15" viewBox="0 0 74 15" fill="none" xmlns="http://www.w3.org/2000/svg">
<g id="Group 191">
<path id="Vector" d="M5.02448 4.51896L1.13534 5.08841L1.06646 5.10257C0.962181 5.13052 0.86712 5.18593 0.790981 5.26312C0.714843 5.34032 0.660354 5.43653 0.633081 5.54195C0.605807 5.64737 0.606726 5.75821 0.635742 5.86315C0.664758 5.96809 0.720833 6.06337 0.79824 6.13927L3.61573 8.90894L2.95129 12.8212L2.94336 12.8889C2.93698 12.9978 2.95937 13.1065 3.00825 13.2038C3.05713 13.3011 3.13074 13.3835 3.22154 13.4427C3.31234 13.5018 3.41706 13.5355 3.525 13.5403C3.63293 13.5451 3.74019 13.5209 3.83579 13.4701L7.31408 11.6232L10.7844 13.4701L10.8454 13.4984C10.946 13.5384 11.0554 13.5507 11.1622 13.5339C11.2691 13.5172 11.3696 13.472 11.4535 13.4031C11.5374 13.3342 11.6016 13.244 11.6396 13.1417C11.6775 13.0394 11.6879 12.9288 11.6695 12.8212L11.0045 8.90894L13.8232 6.13865L13.8708 6.08633C13.9387 6.00184 13.9832 5.90069 13.9998 5.79317C14.0164 5.68564 14.0045 5.5756 13.9653 5.47424C13.9261 5.37288 13.861 5.28383 13.7766 5.21616C13.6922 5.14849 13.5915 5.10462 13.4849 5.08902L9.59575 4.51896L7.85722 0.960684C7.80691 0.857589 7.72903 0.770775 7.63239 0.710068C7.53576 0.649362 7.42422 0.617188 7.31042 0.617188C7.19661 0.617188 7.08508 0.649362 6.98844 0.710068C6.89181 0.770775 6.81393 0.857589 6.76362 0.960684L5.02448 4.51896Z" fill="#F5B972"/>
<path id="Vector_2" d="M20.0245 4.51896L16.1353 5.08841L16.0665 5.10257C15.9622 5.13052 15.8671 5.18593 15.791 5.26312C15.7148 5.34032 15.6604 5.43653 15.6331 5.54195C15.6058 5.64737 15.6067 5.75821 15.6357 5.86315C15.6648 5.96809 15.7208 6.06337 15.7982 6.13927L18.6157 8.90894L17.9513 12.8212L17.9434 12.8889C17.937 12.9978 17.9594 13.1065 18.0083 13.2038C18.0571 13.3011 18.1307 13.3835 18.2215 13.4427C18.3123 13.5018 18.4171 13.5355 18.525 13.5403C18.6329 13.5451 18.7402 13.5209 18.8358 13.4701L22.3141 11.6232L25.7844 13.4701L25.8454 13.4984C25.946 13.5384 26.0554 13.5507 26.1622 13.5339C26.2691 13.5172 26.3696 13.472 26.4535 13.4031C26.5374 13.3342 26.6016 13.244 26.6396 13.1417C26.6775 13.0394 26.6879 12.9288 26.6695 12.8212L26.0045 8.90894L28.8232 6.13865L28.8708 6.08633C28.9387 6.00184 28.9832 5.90069 28.9998 5.79317C29.0164 5.68564 29.0045 5.5756 28.9653 5.47424C28.9261 5.37288 28.861 5.28383 28.7766 5.21616C28.6922 5.14849 28.5915 5.10462 28.4849 5.08902L24.5957 4.51896L22.8572 0.960684C22.8069 0.857589 22.729 0.770775 22.6324 0.710068C22.5358 0.649362 22.4242 0.617188 22.3104 0.617188C22.1966 0.617188 22.0851 0.649362 21.9884 0.710068C21.8918 0.770775 21.8139 0.857589 21.7636 0.960684L20.0245 4.51896Z" fill="#F5B972"/>
<path id="Vector_3" d="M34.6534 4.51896L30.7642 5.08841L30.6954 5.10257C30.5911 5.13052 30.496 5.18593 30.4199 5.26312C30.3437 5.34032 30.2893 5.43653 30.262 5.54195C30.2347 5.64737 30.2356 5.75821 30.2646 5.86315C30.2937 5.96809 30.3497 6.06337 30.4271 6.13927L33.2446 8.90894L32.5802 12.8212L32.5723 12.8889C32.5659 12.9978 32.5883 13.1065 32.6372 13.2038C32.686 13.3011 32.7596 13.3835 32.8504 13.4427C32.9412 13.5018 33.046 13.5355 33.1539 13.5403C33.2618 13.5451 33.3691 13.5209 33.4647 13.4701L36.943 11.6232L40.4133 13.4701L40.4743 13.4984C40.5749 13.5384 40.6843 13.5507 40.7911 13.5339C40.898 13.5172 40.9985 13.472 41.0824 13.4031C41.1663 13.3342 41.2305 13.244 41.2685 13.1417C41.3064 13.0394 41.3168 12.9288 41.2985 12.8212L40.6334 8.90894L43.4521 6.13865L43.4997 6.08633C43.5676 6.00184 43.6121 5.90069 43.6287 5.79317C43.6453 5.68564 43.6334 5.5756 43.5942 5.47424C43.555 5.37288 43.4899 5.28383 43.4055 5.21616C43.3211 5.14849 43.2204 5.10462 43.1138 5.08902L39.2247 4.51896L37.4861 0.960684C37.4358 0.857589 37.3579 0.770775 37.2613 0.710068C37.1647 0.649362 37.0531 0.617188 36.9393 0.617188C36.8255 0.617188 36.714 0.649362 36.6173 0.710068C36.5207 0.770775 36.4428 0.857589 36.3925 0.960684L34.6534 4.51896Z" fill="#F5B972"/>
<path id="Vector_4" d="M49.2842 4.51896L45.3951 5.08841L45.3262 5.10257C45.2219 5.13052 45.1269 5.18593 45.0507 5.26312C44.9746 5.34032 44.9201 5.43653 44.8928 5.54195C44.8656 5.64737 44.8665 5.75821 44.8955 5.86315C44.9245 5.96809 44.9806 6.06337 45.058 6.13927L47.8755 8.90894L47.2111 12.8212L47.2031 12.8889C47.1967 12.9978 47.2191 13.1065 47.268 13.2038C47.3169 13.3011 47.3905 13.3835 47.4813 13.4427C47.5721 13.5018 47.6768 13.5355 47.7848 13.5403C47.8927 13.5451 48 13.5209 48.0956 13.4701L51.5738 11.6232L55.0442 13.4701L55.1052 13.4984C55.2058 13.5384 55.3151 13.5507 55.422 13.5339C55.5289 13.5172 55.6294 13.472 55.7133 13.4031C55.7972 13.3342 55.8614 13.244 55.8993 13.1417C55.9373 13.0394 55.9477 12.9288 55.9293 12.8212L55.2643 8.90894L58.083 6.13865L58.1305 6.08633C58.1984 6.00184 58.243 5.90069 58.2596 5.79317C58.2762 5.68564 58.2643 5.5756 58.2251 5.47424C58.1858 5.37288 58.1207 5.28383 58.0363 5.21616C57.9519 5.14849 57.8513 5.10462 57.7447 5.08902L53.8555 4.51896L52.117 0.960684C52.0667 0.857589 51.9888 0.770775 51.8922 0.710068C51.7955 0.649362 51.684 0.617188 51.5702 0.617188C51.4564 0.617188 51.3448 0.649362 51.2482 0.710068C51.1516 0.770775 51.0737 0.857589 51.0234 0.960684L49.2842 4.51896Z" fill="#F5B972"/>
<path id="Vector_5" d="M63.9151 4.51896L60.026 5.08841L59.9571 5.10257C59.8528 5.13052 59.7577 5.18593 59.6816 5.26312C59.6055 5.34032 59.551 5.43653 59.5237 5.54195C59.4964 5.64737 59.4974 5.75821 59.5264 5.86315C59.5554 5.96809 59.6115 6.06337 59.6889 6.13927L62.5064 8.90894L61.8419 12.8212L61.834 12.8889C61.8276 12.9978 61.85 13.1065 61.8989 13.2038C61.9478 13.3011 62.0214 13.3835 62.1122 13.4427C62.203 13.5018 62.3077 13.5355 62.4156 13.5403C62.5236 13.5451 62.6308 13.5209 62.7264 13.4701L66.2047 11.6232L69.6751 13.4701L69.736 13.4984C69.8366 13.5384 69.946 13.5507 70.0529 13.5339C70.1597 13.5172 70.2602 13.472 70.3441 13.4031C70.428 13.3342 70.4922 13.244 70.5302 13.1417C70.5682 13.0394 70.5785 12.9288 70.5602 12.8212L69.8951 8.90894L72.7138 6.13865L72.7614 6.08633C72.8293 6.00184 72.8738 5.90069 72.8904 5.79317C72.907 5.68564 72.8951 5.5756 72.8559 5.47424C72.8167 5.37288 72.7516 5.28383 72.6672 5.21616C72.5828 5.14849 72.4822 5.10462 72.3755 5.08902L68.4864 4.51896L66.7478 0.960684C66.6975 0.857589 66.6197 0.770775 66.523 0.710068C66.4264 0.649362 66.3148 0.617188 66.201 0.617188C66.0872 0.617188 65.9757 0.649362 65.8791 0.710068C65.7824 0.770775 65.7046 0.857589 65.6542 0.960684L63.9151 4.51896Z" fill="#F5B972"/>
</g>
</svg>
