<svg width="21" height="21" viewBox="0 0 21 21" fill="none" xmlns="http://www.w3.org/2000/svg">
<g id="icn/general/arrow/go">
<path id="arrow" fill-rule="evenodd" clip-rule="evenodd" d="M16.7012 10.9871L16.635 11.0621L12.6535 15.0436C12.3425 15.3546 11.8383 15.3546 11.5273 15.0436C11.2403 14.7566 11.2182 14.3049 11.4611 13.9925L11.5273 13.9175L14.1488 11.2954L4.92374 11.2954C4.48396 11.2954 4.12744 10.9389 4.12744 10.4991C4.12744 10.0907 4.43484 9.75414 4.83087 9.70814L4.92374 9.70278L14.1488 9.70278L11.5273 7.08066C11.2403 6.79361 11.2182 6.34193 11.4611 6.02955L11.5273 5.95453C11.8144 5.66748 12.2661 5.6454 12.5785 5.88829L12.6535 5.95453L16.635 9.93601C16.922 10.2231 16.9441 10.6747 16.7012 10.9871Z" fill="white"/>
</g>
</svg>
