<svg width="21" height="21" viewBox="0 0 21 21" fill="none" xmlns="http://www.w3.org/2000/svg">
<g id="icn/general/arrow/go">
<path id="arrow" fill-rule="evenodd" clip-rule="evenodd" d="M4.29881 10.9871L4.36505 11.0621L8.34653 15.0436C8.6575 15.3546 9.16169 15.3546 9.47266 15.0436C9.75971 14.7566 9.7818 14.3049 9.53891 13.9925L9.47266 13.9175L6.85117 11.2954L16.0763 11.2954C16.516 11.2954 16.8726 10.9389 16.8726 10.4991C16.8726 10.0907 16.5652 9.75414 16.1691 9.70814L16.0763 9.70278L6.85117 9.70278L9.47266 7.08066C9.75972 6.79361 9.7818 6.34193 9.53891 6.02955L9.47266 5.95453C9.18561 5.66748 8.73393 5.6454 8.42155 5.88829L8.34653 5.95453L4.36505 9.93601C4.078 10.2231 4.05592 10.6747 4.29881 10.9871Z" fill="white"/>
</g>
</svg>
