<svg width="14" height="16" viewBox="0 0 14 16" fill="none" xmlns="http://www.w3.org/2000/svg">
<g id="Group">
<path id="Vector" fill-rule="evenodd" clip-rule="evenodd" d="M3.08105 6.69199C3.08105 5.72853 3.49154 4.80453 4.22221 4.12327C4.95289 3.442 5.94389 3.05927 6.97722 3.05927C8.01054 3.05927 9.00155 3.442 9.73222 4.12327C10.4629 4.80453 10.8734 5.72853 10.8734 6.69199C10.8734 7.65545 10.4629 8.57944 9.73222 9.26071C9.00155 9.94198 8.01054 10.3247 6.97722 10.3247C5.94389 10.3247 4.95289 9.94198 4.22221 9.26071C3.49154 8.57944 3.08105 7.65545 3.08105 6.69199ZM6.97722 4.20644C6.2702 4.20644 5.59215 4.46831 5.09222 4.93444C4.59228 5.40057 4.31142 6.03278 4.31142 6.69199C4.31142 7.3512 4.59228 7.9834 5.09222 8.44954C5.59215 8.91567 6.2702 9.17754 6.97722 9.17754C7.68423 9.17754 8.36228 8.91567 8.86222 8.44954C9.36215 7.9834 9.64301 7.3512 9.64301 6.69199C9.64301 6.03278 9.36215 5.40057 8.86222 4.93444C8.36228 4.46831 7.68423 4.20644 6.97722 4.20644Z" fill="#F8F8F8"/>
<path id="Vector_2" fill-rule="evenodd" clip-rule="evenodd" d="M0.0248007 5.81771C0.165002 4.23216 0.939559 2.75375 2.19469 1.676C3.44981 0.598257 5.09372 -4.84534e-06 6.80002 0H7.15437C8.86067 -4.84534e-06 10.5046 0.598257 11.7597 1.676C13.0148 2.75375 13.7894 4.23216 13.9296 5.81771C14.0856 7.58381 13.5004 9.33745 12.2973 10.7093L8.36587 15.1917C8.19762 15.3835 7.98576 15.5381 7.74559 15.6442C7.50543 15.7504 7.24297 15.8054 6.97719 15.8054C6.71142 15.8054 6.44896 15.7504 6.20879 15.6442C5.96863 15.5381 5.75677 15.3835 5.58852 15.1917L1.65709 10.7093C0.453884 9.33748 -0.131304 7.58382 0.0248007 5.81771ZM6.80002 1.14718C5.40272 1.14737 4.05658 1.63742 3.0288 2.52005C2.00102 3.40268 1.36675 4.61336 1.25189 5.91178C1.12196 7.38159 1.60893 8.84104 2.61021 9.98272L6.54164 14.4659C6.59449 14.5262 6.66106 14.5748 6.73653 14.6082C6.812 14.6415 6.89449 14.6589 6.97802 14.6589C7.06154 14.6589 7.14403 14.6415 7.2195 14.6082C7.29497 14.5748 7.36154 14.5262 7.41439 14.4659L11.3458 9.98272C12.3465 8.84081 12.8329 7.38138 12.7025 5.91178C12.5876 4.61323 11.9532 3.40244 10.9253 2.5198C9.89734 1.63715 8.55099 1.14718 7.15355 1.14718H6.80002Z" fill="#F8F8F8"/>
</g>
</svg>
