<svg width="99" height="99" viewBox="0 0 99 99" fill="none" xmlns="http://www.w3.org/2000/svg">
<g id="noto:paw-prints" clip-path="url(#clip0_774_345)">
<path id="Vector" d="M71.494 48.9825C73.2736 47.5336 73.1118 44.3886 71.1327 41.9578C69.1536 39.5271 66.1067 38.7311 64.3271 40.18C62.5476 41.6288 62.7094 44.7739 64.6885 47.2046C66.6675 49.6354 69.7145 50.4313 71.494 48.9825Z" fill="#5398FF" fill-opacity="0.71"/>
<path id="Vector_2" d="M31.9944 40.9345C33.9014 39.5297 33.9595 36.3711 32.1241 33.8796C30.2887 31.3881 27.2548 30.5072 25.3478 31.912C23.4408 33.3169 23.3828 36.4755 25.2182 38.9669C27.0536 41.4584 30.0874 42.3393 31.9944 40.9345Z" fill="#5398FF" fill-opacity="0.71"/>
<path id="Vector_3" d="M42.5432 32.0961C41.2454 29.4435 38.4686 28.137 36.341 29.178C34.2134 30.2189 33.5408 33.2131 34.8386 35.8657C36.1364 38.5183 38.9132 39.8247 41.0408 38.7838C43.1684 37.7428 43.8411 34.7486 42.5432 32.0961Z" fill="#5398FF" fill-opacity="0.71"/>
<path id="Vector_4" d="M25.4544 47.6613C27.1222 45.9235 26.5418 42.6604 24.1581 40.3728C21.7745 38.0853 18.4902 37.6397 16.8225 39.3775C15.1547 41.1153 15.7351 44.3785 18.1188 46.666C20.5024 48.9535 23.7867 49.3991 25.4544 47.6613Z" fill="#5398FF" fill-opacity="0.71"/>
<path id="Vector_5" d="M70.4883 55.7194C74.9921 47.1934 86.6842 47.5287 88.3821 52.4746C90.1975 57.7757 84.262 58.1306 81.7826 61.4228C80.2591 63.4452 79.8645 69.5146 74.7337 69.2883C70.2577 69.0891 67.5482 61.2812 70.4883 55.7194ZM30.076 46.0986C34.2672 41.5049 43.8478 40.8656 45.9422 45.8599C47.9137 50.5621 40.8712 52.5169 39.069 54.9389C36.7196 58.0937 35.0357 63.9964 30.6336 62.037C25.6664 59.8199 26.3988 50.1337 30.076 46.0986Z" fill="#5398FF" fill-opacity="0.71"/>
<path id="Vector_6" d="M23.3661 56.5097C24.445 54.3977 23.1101 51.5568 20.3844 50.1644C17.6588 48.772 14.5746 49.3554 13.4956 51.4675C12.4167 53.5795 13.7517 56.4204 16.4773 57.8128C19.203 59.2052 22.2872 58.6218 23.3661 56.5097Z" fill="#5398FF" fill-opacity="0.71"/>
<path id="Vector_7" d="M66.9611 55.8947C68.082 53.7005 66.7278 50.7657 63.9364 49.3397C61.145 47.9138 57.9735 48.5366 56.8526 50.7308C55.7317 52.925 57.0859 55.8597 59.8773 57.2857C62.6687 58.7117 65.8402 58.0889 66.9611 55.8947Z" fill="#5398FF" fill-opacity="0.71"/>
<path id="Vector_8" d="M66.1629 65.9909C67.0117 63.8589 65.3389 61.1907 62.4266 60.0314C59.5144 58.872 56.4655 59.6606 55.6167 61.7926C54.768 63.9246 56.4408 66.5928 59.3531 67.7522C62.2653 68.9115 65.3142 68.123 66.1629 65.9909Z" fill="#5398FF" fill-opacity="0.71"/>
<path id="Vector_9" d="M80.6348 44.7666C82.4726 43.4079 82.5602 40.4096 80.8304 38.0696C79.1006 35.7295 76.2084 34.934 74.3705 36.2926C72.5326 37.6512 72.445 40.6496 74.1749 42.9896C75.9047 45.3296 78.7969 46.1252 80.6348 44.7666Z" fill="#5398FF" fill-opacity="0.71"/>
</g>
<defs>
<clipPath id="clip0_774_345">
<rect width="71.2928" height="71.2928" fill="white" transform="translate(0 38.7663) rotate(-32.9401)"/>
</clipPath>
</defs>
</svg>
