<svg width="108" height="108" viewBox="0 0 108 108" fill="none" xmlns="http://www.w3.org/2000/svg">
<g id="uil:calender" clip-path="url(#clip0_226_214)">
<path id="Vector" d="M58.5241 19.6075L53.1016 23.1124L51.3491 20.4011C50.8843 19.682 50.1529 19.177 49.3158 18.9972C48.4787 18.8174 47.6045 18.9775 46.8854 19.4422C46.1663 19.907 45.6613 20.6384 45.4815 21.4755C45.3017 22.3126 45.4618 23.1869 45.9265 23.906L47.679 26.6173L31.4113 37.132L29.6589 34.4207C29.1941 33.7016 28.4627 33.1966 27.6256 33.0168C26.7885 32.837 25.9142 32.9971 25.1951 33.4619C24.4761 33.9266 23.9711 34.658 23.7913 35.4951C23.6114 36.3323 23.7715 37.2065 24.2363 37.9256L25.9888 40.6369L20.5662 44.1418C18.409 45.5361 16.894 47.7303 16.3546 50.2416C15.8151 52.753 16.2954 55.3757 17.6897 57.533L38.7191 90.0683C40.1135 92.2255 42.3077 93.7405 44.819 94.28C47.3303 94.8194 49.9531 94.3391 52.1103 92.9448L90.0682 68.4105C92.2255 67.0161 93.7404 64.822 94.2799 62.3106C94.8193 59.7993 94.3391 57.1765 92.9447 55.0193L71.9153 22.4839C70.521 20.3267 68.3268 18.8117 65.8155 18.2723C63.3041 17.7328 60.6813 18.2131 58.5241 19.6075ZM87.5222 58.5242C87.9869 59.2433 88.147 60.1175 87.9672 60.9546C87.7874 61.7918 87.2824 62.5231 86.5633 62.9879L48.6054 87.5222C47.8863 87.987 47.0121 88.1471 46.175 87.9673C45.3379 87.7875 44.6065 87.2825 44.1417 86.5634L31.8745 67.5845L75.255 39.5452L87.5222 58.5242ZM71.7501 34.1227L28.3696 62.1619L23.1123 54.0281C22.6475 53.309 22.4874 52.4347 22.6672 51.5976C22.847 50.7605 23.352 50.0291 24.0711 49.5643L29.4937 46.0594L31.2461 48.7707C31.7109 49.4898 32.4423 49.9948 33.2794 50.1746C34.1165 50.3544 34.9908 50.1943 35.7098 49.7295C36.4289 49.2648 36.9339 48.5334 37.1137 47.6962C37.2935 46.8591 37.1335 45.9849 36.6687 45.2658L34.9162 42.5545L51.1839 32.0398L52.9363 34.7511C53.4011 35.4702 54.1325 35.9752 54.9696 36.155C55.8067 36.3348 56.681 36.1747 57.4001 35.7099C58.1192 35.2451 58.6241 34.5138 58.804 33.6766C58.9838 32.8395 58.8237 31.9653 58.3589 31.2462L56.6065 28.5349L62.029 25.03C62.7481 24.5652 63.6224 24.4051 64.4595 24.585C65.2966 24.7648 66.028 25.2698 66.4927 25.9888L71.7501 34.1227Z" fill="#5398FF" fill-opacity="0.4"/>
</g>
<defs>
<clipPath id="clip0_226_214">
<rect width="77.4799" height="77.4799" fill="white" transform="translate(0 42.0586) rotate(-32.8768)"/>
</clipPath>
</defs>
</svg>
